<?xml version="1.0" encoding="UTF-8" standalone="no"?>
<svg width="111px" height="40px" viewBox="0 0 111 40" version="1.1" xmlns="http://www.w3.org/2000/svg" xmlns:xlink="http://www.w3.org/1999/xlink" xmlns:sketch="http://www.bohemiancoding.com/sketch/ns">
    <!-- Generator: Sketch 3.1 (8751) - http://www.bohemiancoding.com/sketch -->
    <title>90_Konto_Logo_PMS_plate</title>
    <desc>Created with Sketch.</desc>
    <defs></defs>
    <g id="Page-1" stroke="none" stroke-width="1" fill="none" fill-rule="evenodd" sketch:type="MSPage">
        <g id="90_Konto_Logo_PMS_plate" sketch:type="MSLayerGroup">
            <path d="M0,0.015483871 L110.874683,0.015483871 L110.874683,40 L0,40 L0,0.015483871 Z" id="Fill-1" fill="#FFFFFF" sketch:type="MSShapeGroup"></path>
            <path id="Fill-2" fill="#1A1918" sketch:type="MSShapeGroup" d="M45.1596261,7.97419355 L45.4009304,7.97419355 L45.4009304,32.3643548 L45.1596261,32.3643548 L45.1596261,7.97419355 Z"></path>
            <path d="M47.6907478,13.8985484 L48.5007261,12.9251613 C49.0613565,13.39 49.6482087,13.6843548 50.3608609,13.6843548 C50.9213304,13.6843548 51.2594783,13.4606452 51.2594783,13.0951613 L51.2594783,13.0769355 C51.2594783,12.7298387 51.0458435,12.5508065 50.0045348,12.2830645 C48.7495913,11.9617742 47.9402565,11.6140323 47.9402565,10.3733871 L47.9402565,10.3558065 C47.9402565,9.22177419 48.8475609,8.47193548 50.1208435,8.47193548 C51.0281478,8.47193548 51.802413,8.75919355 52.4346304,9.26709677 L51.7219783,10.3029032 C51.1708391,9.91854839 50.6279043,9.6866129 50.1025043,9.6866129 C49.5772652,9.6866129 49.3020174,9.92741935 49.3020174,10.2309677 L49.3020174,10.2487097 C49.3020174,10.6582258 49.5690609,10.7924194 50.6454391,11.0696774 C51.9092304,11.3996774 52.6212391,11.8546774 52.6212391,12.9433871 L52.6212391,12.9616129 C52.6212391,14.2016129 51.6779,14.8970968 50.3344783,14.8970968 C49.3904957,14.8970968 48.437987,14.5682258 47.6907478,13.8985484" id="Fill-3" fill="#1A1918" sketch:type="MSShapeGroup"></path>
            <path d="M52.8104217,8.56209677 L54.3235609,8.56209677 L55.9523652,12.9616129 L57.5805261,8.56209677 L59.0579522,8.56209677 L56.5398609,14.8530645 L55.3289957,14.8530645 L52.8104217,8.56209677" id="Fill-4" fill="#1A1918" sketch:type="MSShapeGroup"></path>
            <path d="M59.7990783,8.56209677 L64.4988826,8.56209677 L64.4988826,9.78435484 L61.1608391,9.78435484 L61.1608391,11.0512903 L64.0979957,11.0512903 L64.0979957,12.2748387 L61.1608391,12.2748387 L61.1608391,13.5859677 L64.5428,13.5859677 L64.5428,14.808871 L59.7990783,14.808871 L59.7990783,8.56209677" id="Fill-5" fill="#1A1918" sketch:type="MSShapeGroup"></path>
            <path d="M65.9140522,8.56209677 L67.1776826,8.56209677 L70.0973043,12.4083871 L70.0973043,8.56209677 L71.4502174,8.56209677 L71.4502174,14.808871 L70.2845565,14.808871 L67.2669652,10.8370968 L67.2669652,14.808871 L65.9140522,14.808871 L65.9140522,8.56209677" id="Fill-6" fill="#1A1918" sketch:type="MSShapeGroup"></path>
            <path d="M72.5595739,13.8985484 L73.369713,12.9251613 C73.9295391,13.39 74.5170348,13.6843548 75.229687,13.6843548 C75.7901565,13.6843548 76.1283043,13.4606452 76.1283043,13.0951613 L76.1283043,13.0769355 C76.1283043,12.7298387 75.9146696,12.5508065 74.8727174,12.2830645 C73.6184174,11.9617742 72.8090826,11.6140323 72.8090826,10.3733871 L72.8090826,10.3558065 C72.8090826,9.22177419 73.7165478,8.47193548 74.9896696,8.47193548 C75.8969739,8.47193548 76.6712391,8.75919355 77.3034565,9.26709677 L76.5908043,10.3029032 C76.0396652,9.91854839 75.4967304,9.6866129 74.9714913,9.6866129 C74.4467348,9.6866129 74.1702,9.92741935 74.1702,10.2309677 L74.1702,10.2487097 C74.1702,10.6582258 74.4372435,10.7924194 75.5137826,11.0696774 C76.7780565,11.3996774 77.4907087,11.8546774 77.4907087,12.9433871 L77.4907087,12.9616129 C77.4907087,14.2016129 76.546887,14.8970968 75.2033043,14.8970968 C74.2588391,14.8970968 73.306813,14.5682258 72.5595739,13.8985484" id="Fill-7" fill="#1A1918" sketch:type="MSShapeGroup"></path>
            <path d="M78.7191087,8.56209677 L80.0897174,8.56209677 L80.0897174,11.2925806 L82.6164957,8.56209677 L84.2723261,8.56209677 L81.7360565,11.2119355 L84.3879913,14.808871 L82.7414913,14.808871 L80.8099304,12.1495161 L80.0897174,12.8985484 L80.0897174,14.808871 L78.7191087,14.808871 L78.7191087,8.56209677" id="Fill-8" fill="#1A1918" sketch:type="MSShapeGroup"></path>
            <path d="M48.1802739,17.3196774 L49.5508826,17.3196774 L49.5508826,23.5664516 L48.1802739,23.5664516 L48.1802739,17.3196774 Z" id="Fill-9" fill="#1A1918" sketch:type="MSShapeGroup"></path>
            <path d="M51.1219348,17.3196774 L52.3862087,17.3196774 L55.305187,21.1659677 L55.305187,17.3196774 L56.6574565,17.3196774 L56.6574565,23.5664516 L55.4917957,23.5664516 L52.4748478,19.5959677 L52.4748478,23.5664516 L51.1219348,23.5664516 L51.1219348,17.3196774" id="Fill-10" fill="#1A1918" sketch:type="MSShapeGroup"></path>
            <path d="M57.7442913,22.656129 L58.5542696,21.6832258 C59.1140957,22.1475806 59.7017522,22.4417742 60.4142435,22.4417742 C60.9748739,22.4417742 61.3128609,22.218871 61.3128609,21.8527419 L61.3128609,21.8351613 C61.3128609,21.4872581 61.0992261,21.3096774 60.0585609,21.0412903 C58.8031348,20.72 57.9931565,20.3720968 57.9931565,19.1309677 L57.9931565,19.1133871 C57.9931565,17.9804839 58.9011043,17.2308065 60.1735826,17.2308065 C61.0816913,17.2308065 61.8557957,17.5167742 62.488013,18.0253226 L61.7753609,19.0604839 C61.2237391,18.676129 60.681287,18.4441935 60.1554043,18.4441935 C59.6312913,18.4441935 59.3554,18.6848387 59.3554,18.9891935 L59.3554,19.0062903 C59.3554,19.4170968 59.6213174,19.5506452 60.6996261,19.8272581 C61.962613,20.1579032 62.6746217,20.6129032 62.6746217,21.7016129 L62.6746217,21.7191935 C62.6746217,22.9603226 61.7314435,23.6553226 60.3872174,23.6553226 C59.4440391,23.6553226 58.492013,23.3258065 57.7442913,22.656129" id="Fill-11" fill="#1A1918" sketch:type="MSShapeGroup"></path>
            <path d="M67.122987,20.9517742 L66.2961174,18.9262903 L65.4678,20.9517742 L67.122987,20.9517742 L67.122987,20.9517742 Z M65.6815957,17.2754839 L66.9452261,17.2754839 L69.6153391,23.5664516 L68.1824739,23.5664516 L67.6131565,22.1653226 L64.9782739,22.1653226 L64.4089565,23.5664516 L63.0114826,23.5664516 L65.6815957,17.2754839 L65.6815957,17.2754839 Z" id="Fill-12" fill="#1A1918" sketch:type="MSShapeGroup"></path>
            <path d="M70.3564652,17.3196774 L71.8338913,17.3196774 L73.4713826,19.9614516 L75.1090348,17.3196774 L76.5864609,17.3196774 L76.5864609,23.5664516 L75.2240565,23.5664516 L75.2240565,19.488871 L73.4713826,22.1564516 L73.4356696,22.1564516 L71.7006913,19.5153226 L71.7006913,23.5664516 L70.3564652,23.5664516 L70.3564652,17.3196774" id="Fill-13" fill="#1A1918" sketch:type="MSShapeGroup"></path>
            <path d="M78.0357348,17.3196774 L79.406987,17.3196774 L79.406987,22.3177419 L82.5125739,22.3177419 L82.5125739,23.5664516 L78.0357348,23.5664516 L78.0357348,17.3196774" id="Fill-14" fill="#1A1918" sketch:type="MSShapeGroup"></path>
            <path d="M83.485513,17.3196774 L84.8561217,17.3196774 L84.8561217,23.5664516 L83.485513,23.5664516 L83.485513,17.3196774 Z" id="Fill-15" fill="#1A1918" sketch:type="MSShapeGroup"></path>
            <path d="M86.4271739,17.3196774 L87.6908043,17.3196774 L90.6097826,21.1659677 L90.6097826,17.3196774 L91.9633391,17.3196774 L91.9633391,23.5664516 L90.7970348,23.5664516 L87.780087,19.5959677 L87.780087,23.5664516 L86.4271739,23.5664516 L86.4271739,17.3196774" id="Fill-16" fill="#1A1918" sketch:type="MSShapeGroup"></path>
            <path d="M93.0249174,20.4609677 L93.0249174,20.4427419 C93.0249174,18.6679032 94.404213,17.2125806 96.2907304,17.2125806 C97.4118304,17.2125806 98.0892522,17.5167742 98.7383609,18.0693548 L97.8756174,19.1133871 C97.3941348,18.7119355 96.9668652,18.4808065 96.2461696,18.4808065 C95.2494217,18.4808065 94.4576217,19.3635484 94.4576217,20.4256452 L94.4576217,20.4427419 C94.4576217,21.585 95.2407348,22.4248387 96.3434957,22.4248387 C96.842513,22.4248387 97.2873174,22.2995161 97.6347957,22.0493548 L97.6347957,21.1572581 L96.2548565,21.1572581 L96.2548565,19.9701613 L98.9608435,19.9701613 L98.9608435,22.6832258 C98.3197783,23.2275806 97.438213,23.6735484 96.2995783,23.6735484 C94.3590087,23.6735484 93.0249174,22.3075806 93.0249174,20.4609677" id="Fill-17" fill="#1A1918" sketch:type="MSShapeGroup"></path>
            <path d="M99.8430522,22.656129 L100.652387,21.6832258 C101.213661,22.1475806 101.801157,22.4417742 102.512522,22.4417742 C103.073635,22.4417742 103.412265,22.218871 103.412265,21.8527419 L103.412265,21.8351613 C103.412265,21.4872581 103.197504,21.3096774 102.156839,21.0412903 C100.901896,20.72 100.091917,20.3720968 100.091917,19.1309677 L100.091917,19.1133871 C100.091917,17.9804839 100.999865,17.2308065 102.272504,17.2308065 C103.180452,17.2308065 103.9552,17.5167742 104.58613,18.0253226 L103.874765,19.0604839 C103.3225,18.676129 102.780209,18.4441935 102.254165,18.4441935 C101.72957,18.4441935 101.454322,18.6848387 101.454322,18.9891935 L101.454322,19.0062903 C101.454322,19.4170968 101.720722,19.5506452 102.797743,19.8272581 C104.062178,20.1579032 104.773383,20.6129032 104.773383,21.7016129 L104.773383,21.7191935 C104.773383,22.9603226 103.830204,23.6553226 102.486139,23.6553226 C101.5428,23.6553226 100.590774,23.3258065 99.8430522,22.656129" id="Fill-18" fill="#1A1918" sketch:type="MSShapeGroup"></path>
            <path d="M48.1891217,26.0777419 L49.5597304,26.0777419 L49.5597304,28.8083871 L52.0871522,26.0777419 L53.7423391,26.0777419 L51.2060696,28.7277419 L53.858487,32.3240323 L52.2121478,32.3240323 L50.2804261,29.6653226 L49.5597304,30.415 L49.5597304,32.3240323 L48.1891217,32.3240323 L48.1891217,26.0777419" id="Fill-19" fill="#1A1918" sketch:type="MSShapeGroup"></path>
            <path d="M58.9147783,29.2191935 L58.9147783,29.2016129 C58.9147783,28.1304839 58.1318261,27.2383871 57.0282609,27.2383871 C55.924213,27.2383871 55.1586348,28.1129032 55.1586348,29.1832258 L55.1586348,29.2016129 C55.1586348,30.2725806 55.9423913,31.1641935 57.045313,31.1641935 C58.1493609,31.1641935 58.9147783,30.2896774 58.9147783,29.2191935 L58.9147783,29.2191935 Z M53.725287,29.2191935 L53.725287,29.2016129 C53.725287,27.4254839 55.1229217,25.9706452 57.045313,25.9706452 C58.968187,25.9706452 60.3474826,27.4072581 60.3474826,29.1832258 L60.3474826,29.2016129 C60.3474826,30.9769355 58.9500087,32.4317742 57.0282609,32.4317742 C55.1052261,32.4317742 53.725287,30.9946774 53.725287,29.2191935 L53.725287,29.2191935 Z" id="Fill-20" fill="#1A1918" sketch:type="MSShapeGroup"></path>
            <path d="M61.3908826,26.0777419 L62.654513,26.0777419 L65.5741348,29.9241935 L65.5741348,26.0777419 L66.9270478,26.0777419 L66.9270478,32.3240323 L65.761387,32.3240323 L62.7437957,28.3535484 L62.7437957,32.3240323 L61.3908826,32.3240323 L61.3908826,26.0777419" id="Fill-21" fill="#1A1918" sketch:type="MSShapeGroup"></path>
            <path d="M69.7744391,27.3454839 L67.8785913,27.3454839 L67.8785913,26.0777419 L73.0408957,26.0777419 L73.0408957,27.3454839 L71.144887,27.3454839 L71.144887,32.3240323 L69.7744391,32.3240323 L69.7744391,27.3454839" id="Fill-22" fill="#1A1918" sketch:type="MSShapeGroup"></path>
            <path d="M76.7516739,29.1114516 C77.4189609,29.1114516 77.8016696,28.7548387 77.8016696,28.2287097 L77.8016696,28.2104839 C77.8016696,27.6214516 77.3925783,27.3183871 76.7246478,27.3183871 L75.362887,27.3183871 L75.362887,29.1114516 L76.7516739,29.1114516 L76.7516739,29.1114516 Z M73.9924391,26.0777419 L76.840313,26.0777419 C77.632113,26.0777419 78.2466348,26.3008065 78.6563696,26.7116129 C79.0025609,27.06 79.1904565,27.5508065 79.1904565,28.14 L79.1904565,28.1569355 C79.1904565,29.1662903 78.6468783,29.798871 77.8550783,30.0937097 L79.3777087,32.3240323 L77.775287,32.3240323 L76.4405522,30.326129 L75.362887,30.326129 L75.362887,32.3240323 L73.9924391,32.3240323 L73.9924391,26.0777419 L73.9924391,26.0777419 Z" id="Fill-23" fill="#1A1918" sketch:type="MSShapeGroup"></path>
            <path d="M85.2710043,29.2191935 L85.2710043,29.2016129 C85.2710043,28.1304839 84.4880522,27.2383871 83.384487,27.2383871 C82.2804391,27.2383871 81.5150217,28.1129032 81.5150217,29.1832258 L81.5150217,29.2016129 C81.5150217,30.2725806 82.2981348,31.1641935 83.4015391,31.1641935 C84.5049435,31.1641935 85.2710043,30.2896774 85.2710043,29.2191935 L85.2710043,29.2191935 Z M80.0823174,29.2191935 L80.0823174,29.2016129 C80.0823174,27.4254839 81.4799522,25.9706452 83.4015391,25.9706452 C85.324413,25.9706452 86.7037087,27.4072581 86.7037087,29.1832258 L86.7037087,29.2016129 C86.7037087,30.9769355 85.3068783,32.4317742 83.384487,32.4317742 C81.461613,32.4317742 80.0823174,30.9946774 80.0823174,29.2191935 L80.0823174,29.2191935 Z" id="Fill-24" fill="#1A1918" sketch:type="MSShapeGroup"></path>
            <path d="M87.8130652,26.0777419 L89.183513,26.0777419 L89.183513,31.0753226 L92.2897435,31.0753226 L92.2897435,32.3240323 L87.8130652,32.3240323 L87.8130652,26.0777419" id="Fill-25" fill="#1A1918" sketch:type="MSShapeGroup"></path>
            <path d="M93.0570913,26.0777419 L94.4277,26.0777419 L94.4277,31.0753226 L97.5339304,31.0753226 L97.5339304,32.3240323 L93.0570913,32.3240323 L93.0570913,26.0777419" id="Fill-26" fill="#1A1918" sketch:type="MSShapeGroup"></path>
            <path d="M21.0267783,27.9112903 L21.9924783,27.9112903 L21.9924783,29.8366129 L23.7747522,27.9112903 L24.9415391,27.9112903 L23.1531522,29.78 L25.0232609,32.3151613 L23.862587,32.3151613 L22.500987,30.4401613 L21.9924783,30.968871 L21.9924783,32.3151613 L21.0267783,32.3151613 L21.0267783,27.9112903" id="Fill-27" fill="#C4222A" sketch:type="MSShapeGroup"></path>
            <path d="M28.4203435,30.1258065 L28.4203435,30.1132258 C28.4203435,29.3577419 27.8687217,28.7296774 27.090113,28.7296774 C26.3127913,28.7296774 25.772913,29.3464516 25.772913,30.1006452 L25.772913,30.1132258 C25.772913,30.8680645 26.3253391,31.4974194 27.1026609,31.4974194 C27.8806261,31.4974194 28.4203435,30.8806452 28.4203435,30.1258065 L28.4203435,30.1258065 Z M24.7631348,30.1258065 L24.7631348,30.1132258 C24.7631348,28.8612903 25.7478174,27.8356452 27.1026609,27.8356452 C28.4581478,27.8356452 29.4309261,28.8487097 29.4309261,30.1006452 L29.4309261,30.1132258 C29.4309261,31.3651613 28.4456,32.3901613 27.090113,32.3901613 C25.7352696,32.3901613 24.7631348,31.3777419 24.7631348,30.1258065 L24.7631348,30.1258065 Z" id="Fill-28" fill="#C4222A" sketch:type="MSShapeGroup"></path>
            <path d="M29.9449043,27.9112903 L30.8359609,27.9112903 L32.8939652,30.6229032 L32.8939652,27.9112903 L33.8472783,27.9112903 L33.8472783,32.3151613 L33.0252348,32.3151613 L30.8988609,29.5153226 L30.8988609,32.3151613 L29.9449043,32.3151613 L29.9449043,27.9112903" id="Fill-29" fill="#C4222A" sketch:type="MSShapeGroup"></path>
            <path d="M35.6356652,28.8053226 L34.299,28.8053226 L34.299,27.9112903 L37.9381913,27.9112903 L37.9381913,28.8053226 L36.6021696,28.8053226 L36.6021696,32.3151613 L35.6356652,32.3151613 L35.6356652,28.8053226" id="Fill-30" fill="#C4222A" sketch:type="MSShapeGroup"></path>
            <path d="M41.4797348,30.1258065 L41.4797348,30.1132258 C41.4797348,29.3577419 40.9274696,28.7296774 40.1501478,28.7296774 C39.3715391,28.7296774 38.8323043,29.3464516 38.8323043,30.1006452 L38.8323043,30.1132258 C38.8323043,30.8680645 39.384087,31.4974194 40.1620522,31.4974194 C40.9400174,31.4974194 41.4797348,30.8806452 41.4797348,30.1258065 L41.4797348,30.1258065 Z M37.8218826,30.1258065 L37.8218826,30.1132258 C37.8218826,28.8612903 38.8072087,27.8356452 40.1620522,27.8356452 C41.5175391,27.8356452 42.4901565,28.8487097 42.4901565,30.1006452 L42.4901565,30.1132258 C42.4901565,31.3651613 41.5048304,32.3901613 40.1501478,32.3901613 C38.7946609,32.3901613 37.8218826,31.3777419 37.8218826,30.1258065 L37.8218826,30.1258065 Z" id="Fill-31" fill="#C4222A" sketch:type="MSShapeGroup"></path>
            <path d="M33.4821043,22.5520968 C30.660613,22.5520968 28.3653261,20.2506452 28.3653261,17.4219355 C28.3653261,14.5930645 30.660613,12.2916129 33.4821043,12.2916129 C36.3035957,12.2916129 38.5992043,14.5930645 38.5992043,17.4219355 C38.5992043,20.2506452 36.3035957,22.5520968 33.4821043,22.5520968 L33.4821043,22.5520968 Z M15.3199304,22.5520968 C12.4986,22.5520968 10.2029913,20.2506452 10.2029913,17.4219355 C10.2029913,14.5930645 12.4986,12.2916129 15.3199304,12.2916129 C18.1414217,12.2916129 20.4370304,14.5930645 20.4370304,17.4219355 C20.4370304,20.2506452 18.1414217,22.5520968 15.3199304,22.5520968 L15.3199304,22.5520968 Z M33.4821043,8.0416129 C29.0996957,8.0416129 25.4119217,11.0785484 24.4011783,15.1635484 C23.3902739,11.0785484 19.7025,8.0416129 15.3199304,8.0416129 C10.1613261,8.0416129 5.96423913,12.2495161 5.96423913,17.4219355 C5.96423913,22.5801613 10.1383217,26.7785484 15.2776217,26.8016129 L11.6524261,32.3137097 L16.7305957,32.3137097 C19.3595261,28.3169355 22.7887826,23.1029032 23.1369043,22.57 C23.7084739,21.695 24.1431435,20.7227419 24.4011783,19.68 C25.4119217,23.7651613 29.0996957,26.8020968 33.4821043,26.8020968 C38.6410304,26.8020968 42.8381174,22.5943548 42.8381174,17.4219355 C42.8381174,12.2495161 38.6410304,8.0416129 33.4821043,8.0416129 L33.4821043,8.0416129 Z" id="Fill-32" fill="#C4222A" sketch:type="MSShapeGroup"></path>
        </g>
    </g>
</svg>