<?xml version="1.0" encoding="UTF-8" standalone="no"?>
<svg width="694px" height="253px" viewBox="0 0 694 253" version="1.1" xmlns="http://www.w3.org/2000/svg" xmlns:xlink="http://www.w3.org/1999/xlink" xmlns:sketch="http://www.bohemiancoding.com/sketch/ns">
    <!-- Generator: Sketch 3.3.2 (12043) - http://www.bohemiancoding.com/sketch -->
    <title>90konto-logo-white@2x</title>
    <desc>Created with Sketch.</desc>
    <defs></defs>
    <g id="Page-1" stroke="none" stroke-width="1" fill="none" fill-rule="evenodd" sketch:type="MSPage">
        <g id="90konto-logo-white" sketch:type="MSArtboardGroup" fill="#FFFFFF">
            <g id="90_Konto_Logo_PMS_plate" sketch:type="MSLayerGroup" transform="translate(39.000000, 52.000000)">
                <path d="M243.722,0.44 L245.222,0.44 L245.222,151.659 L243.722,151.659 L243.722,0.44 Z" id="Fill-2" sketch:type="MSShapeGroup"></path>
                <path d="M259.456,37.171 L264.491,31.136 C267.976,34.018 271.624,35.843 276.054,35.843 C279.538,35.843 281.64,34.456 281.64,32.19 L281.64,32.077 C281.64,29.925 280.312,28.815 273.839,27.155 C266.038,25.163 261.007,23.007 261.007,15.315 L261.007,15.206 C261.007,8.175 266.647,3.526 274.562,3.526 C280.202,3.526 285.015,5.307 288.945,8.456 L284.515,14.878 C281.089,12.495 277.714,11.057 274.448,11.057 C271.183,11.057 269.472,12.55 269.472,14.432 L269.472,14.542 C269.472,17.081 271.132,17.913 277.823,19.632 C285.679,21.678 290.105,24.499 290.105,31.249 L290.105,31.362 C290.105,39.05 284.241,43.362 275.89,43.362 C270.022,43.362 264.101,41.323 259.456,37.171" id="Fill-3" sketch:type="MSShapeGroup"></path>
                <path d="M291.281,4.085 L300.687,4.085 L310.812,31.362 L320.933,4.085 L330.117,4.085 L314.464,43.089 L306.937,43.089 L291.281,4.085" id="Fill-4" sketch:type="MSShapeGroup"></path>
                <path d="M334.724,4.085 L363.939,4.085 L363.939,11.663 L343.189,11.663 L343.189,19.518 L361.447,19.518 L361.447,27.104 L343.189,27.104 L343.189,35.233 L364.212,35.233 L364.212,42.815 L334.724,42.815 L334.724,4.085" id="Fill-5" sketch:type="MSShapeGroup"></path>
                <path d="M372.736,4.085 L380.591,4.085 L398.74,27.932 L398.74,4.085 L407.15,4.085 L407.15,42.815 L399.904,42.815 L381.146,18.19 L381.146,42.815 L372.736,42.815 L372.736,4.085" id="Fill-6" sketch:type="MSShapeGroup"></path>
                <path d="M414.046,37.171 L419.082,31.136 C422.562,34.018 426.214,35.843 430.644,35.843 C434.128,35.843 436.23,34.456 436.23,32.19 L436.23,32.077 C436.23,29.925 434.902,28.815 428.425,27.155 C420.628,25.163 415.597,23.007 415.597,15.315 L415.597,15.206 C415.597,8.175 421.238,3.526 429.152,3.526 C434.792,3.526 439.605,5.307 443.535,8.456 L439.105,14.878 C435.679,12.495 432.304,11.057 429.039,11.057 C425.777,11.057 424.058,12.55 424.058,14.432 L424.058,14.542 C424.058,17.081 425.718,17.913 432.41,19.632 C440.269,21.678 444.699,24.499 444.699,31.249 L444.699,31.362 C444.699,39.05 438.832,43.362 430.48,43.362 C424.609,43.362 418.691,41.323 414.046,37.171" id="Fill-7" sketch:type="MSShapeGroup"></path>
                <path d="M452.335,4.085 L460.855,4.085 L460.855,21.014 L476.562,4.085 L486.855,4.085 L471.089,20.514 L487.574,42.815 L477.339,42.815 L465.332,26.327 L460.855,30.971 L460.855,42.815 L452.335,42.815 L452.335,4.085" id="Fill-8" sketch:type="MSShapeGroup"></path>
                <path d="M262.499,58.382 L271.019,58.382 L271.019,97.112 L262.499,97.112 L262.499,58.382 Z" id="Fill-9" sketch:type="MSShapeGroup"></path>
                <path d="M280.785,58.382 L288.644,58.382 L306.789,82.229 L306.789,58.382 L315.195,58.382 L315.195,97.112 L307.949,97.112 L289.195,72.495 L289.195,97.112 L280.785,97.112 L280.785,58.382" id="Fill-10" sketch:type="MSShapeGroup"></path>
                <path d="M321.951,91.468 L326.986,85.436 C330.466,88.315 334.119,90.139 338.548,90.139 C342.033,90.139 344.134,88.757 344.134,86.487 L344.134,86.378 C344.134,84.221 342.806,83.12 336.337,81.456 C328.533,79.464 323.498,77.307 323.498,69.612 L323.498,69.503 C323.498,62.479 329.142,57.831 337.052,57.831 C342.697,57.831 347.509,59.604 351.439,62.757 L347.009,69.175 C343.58,66.792 340.208,65.354 336.939,65.354 C333.681,65.354 331.966,66.846 331.966,68.733 L331.966,68.839 C331.966,71.386 333.619,72.214 340.322,73.929 C348.173,75.979 352.599,78.8 352.599,85.55 L352.599,85.659 C352.599,93.354 346.736,97.663 338.38,97.663 C332.517,97.663 326.599,95.62 321.951,91.468" id="Fill-11" sketch:type="MSShapeGroup"></path>
                <path d="M380.251,80.901 L375.111,68.343 L369.962,80.901 L380.251,80.901 L380.251,80.901 Z M371.291,58.108 L379.146,58.108 L395.744,97.112 L386.837,97.112 L383.298,88.425 L366.919,88.425 L363.38,97.112 L354.693,97.112 L371.291,58.108 L371.291,58.108 Z" id="Fill-12" sketch:type="MSShapeGroup"></path>
                <path d="M400.351,58.382 L409.535,58.382 L419.714,74.761 L429.894,58.382 L439.078,58.382 L439.078,97.112 L430.609,97.112 L430.609,71.831 L419.714,88.37 L419.492,88.37 L408.707,71.995 L408.707,97.112 L400.351,97.112 L400.351,58.382" id="Fill-13" sketch:type="MSShapeGroup"></path>
                <path d="M448.087,58.382 L456.611,58.382 L456.611,89.37 L475.916,89.37 L475.916,97.112 L448.087,97.112 L448.087,58.382" id="Fill-14" sketch:type="MSShapeGroup"></path>
                <path d="M481.964,58.382 L490.484,58.382 L490.484,97.112 L481.964,97.112 L481.964,58.382 Z" id="Fill-15" sketch:type="MSShapeGroup"></path>
                <path d="M500.25,58.382 L508.105,58.382 L526.25,82.229 L526.25,58.382 L534.664,58.382 L534.664,97.112 L527.414,97.112 L508.66,72.495 L508.66,97.112 L500.25,97.112 L500.25,58.382" id="Fill-16" sketch:type="MSShapeGroup"></path>
                <path d="M541.263,77.858 L541.263,77.745 C541.263,66.741 549.837,57.718 561.564,57.718 C568.533,57.718 572.744,59.604 576.779,63.03 L571.416,69.503 C568.423,67.014 565.767,65.581 561.287,65.581 C555.091,65.581 550.169,71.054 550.169,77.639 L550.169,77.745 C550.169,84.827 555.037,90.034 561.892,90.034 C564.994,90.034 567.759,89.257 569.919,87.706 L569.919,82.175 L561.341,82.175 L561.341,74.815 L578.162,74.815 L578.162,91.636 C574.177,95.011 568.697,97.776 561.619,97.776 C549.556,97.776 541.263,89.307 541.263,77.858" id="Fill-17" sketch:type="MSShapeGroup"></path>
                <path d="M583.646,91.468 L588.677,85.436 C592.166,88.315 595.818,90.139 600.24,90.139 C603.728,90.139 605.833,88.757 605.833,86.487 L605.833,86.378 C605.833,84.221 604.498,83.12 598.029,81.456 C590.228,79.464 585.193,77.307 585.193,69.612 L585.193,69.503 C585.193,62.479 590.837,57.831 598.748,57.831 C604.392,57.831 609.208,59.604 613.13,62.757 L608.708,69.175 C605.275,66.792 601.904,65.354 598.634,65.354 C595.373,65.354 593.662,66.846 593.662,68.733 L593.662,68.839 C593.662,71.386 595.318,72.214 602.013,73.929 C609.873,75.979 614.294,78.8 614.294,85.55 L614.294,85.659 C614.294,93.354 608.431,97.663 600.076,97.663 C594.212,97.663 588.294,95.62 583.646,91.468" id="Fill-18" sketch:type="MSShapeGroup"></path>
                <path d="M262.554,112.682 L271.074,112.682 L271.074,129.612 L286.785,112.682 L297.074,112.682 L281.308,129.112 L297.796,151.409 L287.562,151.409 L275.554,134.925 L271.074,139.573 L271.074,151.409 L262.554,151.409 L262.554,112.682" id="Fill-19" sketch:type="MSShapeGroup"></path>
                <path d="M329.227,132.159 L329.227,132.05 C329.227,125.409 324.36,119.878 317.5,119.878 C310.637,119.878 305.878,125.3 305.878,131.936 L305.878,132.05 C305.878,138.69 310.75,144.218 317.606,144.218 C324.469,144.218 329.227,138.796 329.227,132.159 L329.227,132.159 Z M296.968,132.159 L296.968,132.05 C296.968,121.038 305.656,112.018 317.606,112.018 C329.559,112.018 338.133,120.925 338.133,131.936 L338.133,132.05 C338.133,143.057 329.446,152.077 317.5,152.077 C305.546,152.077 296.968,143.167 296.968,132.159 L296.968,132.159 Z" id="Fill-20" sketch:type="MSShapeGroup"></path>
                <path d="M344.619,112.682 L352.474,112.682 L370.623,136.53 L370.623,112.682 L379.033,112.682 L379.033,151.409 L371.787,151.409 L353.029,126.792 L353.029,151.409 L344.619,151.409 L344.619,112.682" id="Fill-21" sketch:type="MSShapeGroup"></path>
                <path d="M396.733,120.542 L384.948,120.542 L384.948,112.682 L417.038,112.682 L417.038,120.542 L405.252,120.542 L405.252,151.409 L396.733,151.409 L396.733,120.542" id="Fill-22" sketch:type="MSShapeGroup"></path>
                <path d="M440.105,131.491 C444.253,131.491 446.632,129.28 446.632,126.018 L446.632,125.905 C446.632,122.253 444.089,120.374 439.937,120.374 L431.472,120.374 L431.472,131.491 L440.105,131.491 L440.105,131.491 Z M422.953,112.682 L440.656,112.682 C445.578,112.682 449.398,114.065 451.945,116.612 C454.097,118.772 455.265,121.815 455.265,125.468 L455.265,125.573 C455.265,131.831 451.886,135.753 446.964,137.581 L456.429,151.409 L446.468,151.409 L438.171,139.022 L431.472,139.022 L431.472,151.409 L422.953,151.409 L422.953,112.682 L422.953,112.682 Z" id="Fill-23" sketch:type="MSShapeGroup"></path>
                <path d="M493.063,132.159 L493.063,132.05 C493.063,125.409 488.196,119.878 481.336,119.878 C474.473,119.878 469.715,125.3 469.715,131.936 L469.715,132.05 C469.715,138.69 474.583,144.218 481.442,144.218 C488.301,144.218 493.063,138.796 493.063,132.159 L493.063,132.159 Z M460.809,132.159 L460.809,132.05 C460.809,121.038 469.497,112.018 481.442,112.018 C493.395,112.018 501.969,120.925 501.969,131.936 L501.969,132.05 C501.969,143.057 493.286,152.077 481.336,152.077 C469.383,152.077 460.809,143.167 460.809,132.159 L460.809,132.159 Z" id="Fill-24" sketch:type="MSShapeGroup"></path>
                <path d="M508.865,112.682 L517.384,112.682 L517.384,143.667 L536.693,143.667 L536.693,151.409 L508.865,151.409 L508.865,112.682" id="Fill-25" sketch:type="MSShapeGroup"></path>
                <path d="M541.463,112.682 L549.983,112.682 L549.983,143.667 L569.292,143.667 L569.292,151.409 L541.463,151.409 L541.463,112.682" id="Fill-26" sketch:type="MSShapeGroup"></path>
                <path d="M93.707,124.05 L99.71,124.05 L99.71,135.987 L110.789,124.05 L118.042,124.05 L106.925,135.636 L118.55,151.354 L111.335,151.354 L102.871,139.729 L99.71,143.007 L99.71,151.354 L93.707,151.354 L93.707,124.05" id="Fill-27" sketch:type="MSShapeGroup"></path>
                <path d="M139.667,137.78 L139.667,137.702 C139.667,133.018 136.238,129.124 131.398,129.124 C126.566,129.124 123.21,132.948 123.21,137.624 L123.21,137.702 C123.21,142.382 126.644,146.284 131.476,146.284 C136.312,146.284 139.667,142.46 139.667,137.78 L139.667,137.78 Z M116.933,137.78 L116.933,137.702 C116.933,129.94 123.054,123.581 131.476,123.581 C139.902,123.581 145.949,129.862 145.949,137.624 L145.949,137.702 C145.949,145.464 139.824,151.819 131.398,151.819 C122.976,151.819 116.933,145.542 116.933,137.78 L116.933,137.78 Z" id="Fill-28" sketch:type="MSShapeGroup"></path>
                <path d="M149.144,124.05 L154.683,124.05 L167.476,140.862 L167.476,124.05 L173.402,124.05 L173.402,151.354 L168.292,151.354 L155.074,133.995 L155.074,151.354 L149.144,151.354 L149.144,124.05" id="Fill-29" sketch:type="MSShapeGroup"></path>
                <path d="M184.519,129.593 L176.21,129.593 L176.21,124.05 L198.832,124.05 L198.832,129.593 L190.527,129.593 L190.527,151.354 L184.519,151.354 L184.519,129.593" id="Fill-30" sketch:type="MSShapeGroup"></path>
                <path d="M220.847,137.78 L220.847,137.702 C220.847,133.018 217.414,129.124 212.582,129.124 C207.742,129.124 204.39,132.948 204.39,137.624 L204.39,137.702 C204.39,142.382 207.82,146.284 212.656,146.284 C217.492,146.284 220.847,142.46 220.847,137.78 L220.847,137.78 Z M198.109,137.78 L198.109,137.702 C198.109,129.94 204.234,123.581 212.656,123.581 C221.082,123.581 227.128,129.862 227.128,137.624 L227.128,137.702 C227.128,145.464 221.003,151.819 212.582,151.819 C204.156,151.819 198.109,145.542 198.109,137.78 L198.109,137.78 Z" id="Fill-31" sketch:type="MSShapeGroup"></path>
                <path d="M171.132,90.823 C153.593,90.823 139.325,76.554 139.325,59.016 C139.325,41.477 153.593,27.208 171.132,27.208 C188.671,27.208 202.941,41.477 202.941,59.016 C202.941,76.554 188.671,90.823 171.132,90.823 L171.132,90.823 Z M58.232,90.823 C40.694,90.823 26.424,76.554 26.424,59.016 C26.424,41.477 40.694,27.208 58.232,27.208 C75.771,27.208 90.041,41.477 90.041,59.016 C90.041,76.554 75.771,90.823 58.232,90.823 L58.232,90.823 Z M171.132,0.858 C143.89,0.858 120.966,19.687 114.683,45.014 C108.399,19.687 85.475,0.858 58.232,0.858 C26.165,0.858 0.075,26.947 0.075,59.016 C0.075,90.997 26.022,117.027 57.969,117.17 L35.434,151.345 L67.001,151.345 C83.343,126.565 104.66,94.238 106.824,90.934 C110.377,85.509 113.079,79.481 114.683,73.016 C120.966,98.344 143.89,117.173 171.132,117.173 C203.201,117.173 229.291,91.085 229.291,59.016 C229.291,26.947 203.201,0.858 171.132,0.858 L171.132,0.858 Z" id="Fill-32" sketch:type="MSShapeGroup"></path>
            </g>
        </g>
    </g>
</svg>