<?xml version="1.0" encoding="UTF-8" standalone="no"?>
<svg width="1979px" height="454px" viewBox="0 0 1979 454" version="1.1" xmlns="http://www.w3.org/2000/svg" xmlns:xlink="http://www.w3.org/1999/xlink" xmlns:sketch="http://www.bohemiancoding.com/sketch/ns">
    <!-- Generator: Sketch 3.3.2 (12043) - http://www.bohemiancoding.com/sketch -->
    <title>logo-white</title>
    <desc>Created with Sketch.</desc>
    <defs></defs>
    <g id="Form" stroke="none" stroke-width="1" fill="none" fill-rule="evenodd" sketch:type="MSPage">
        <g id="logo-white" sketch:type="MSArtboardGroup">
            <g id="wateraid-logo" sketch:type="MSLayerGroup" transform="translate(33.000000, 37.000000)">
                <g id="Page-1" sketch:type="MSShapeGroup">
                    <g id="Imported-Layers">
                        <path d="M164.746796,175.808333 C155.2723,211.117778 147.1926,257.21 113.283877,277.858333 C63.4325615,308.227778 9.34626923,263.363333 26.7992885,208.106111 C33.5998231,186.569444 47.8513154,150.212778 97.7026308,113.632222 C144.627042,79.1966667 216.086858,75.4844444 216.086858,75.4844444 C192.447592,102.466667 172.017081,148.782778 164.746796,175.808333" id="Fill-1"></path>
                        <path d="M547.491869,319.595556 L466.160077,319.595556 L450.824546,233.629444 C444.443173,197.886667 437.628185,159.175556 436.349019,140.441111 L435.922631,140.441111 C435.077081,155.340556 428.688481,194.903889 421.447104,233.629444 L405.692412,319.595556 L322.655065,319.595556 L250.689365,22.9933333 L331.175608,22.9933333 L347.783077,102.993889 C361.832215,169.813889 364.390546,198.738889 364.816935,209.803333 L365.236096,209.803333 C366.94165,185.977222 372.051085,148.948889 380.138012,105.117222 L395.466315,22.9933333 L480.209215,22.9933333 L499.375015,122.132778 C503.631673,144.695 509.593885,173.208333 511.299438,209.377222 L511.725827,209.377222 C513.424154,182.994444 522.371085,125.556111 528.333296,96.6166667 L543.235212,22.9933333 L624.567004,22.9933333 L547.491869,319.595556" id="Fill-2" fill="#FFFFFF"></path>
                        <path d="M682.071631,252.775556 C682.071631,265.551667 689.732169,274.059444 702.509369,274.059444 C708.897969,274.059444 717.411285,270.231667 719.969615,266.83 L719.969615,228.523333 C688.879392,227.678333 682.071631,240.013889 682.071631,252.775556 M740.407354,306.826667 C729.762096,315.767778 711.449073,325.127778 685.475512,325.127778 C630.970058,325.127778 610.098704,292.786667 610.098704,253.627778 C610.098704,211.926667 646.298362,182.149444 707.618804,182.149444 C710.596296,182.149444 717.837673,182.149444 719.969615,182.575556 L719.969615,168.954444 C719.969615,156.192778 718.264062,148.53 702.075754,148.53 C677.388585,148.53 658.222785,157.463889 639.483373,171.503889 L612.657035,125.556111 C639.909762,108.959444 675.256642,94.4788889 711.449073,94.4788889 C753.177327,94.4788889 782.561996,108.533333 790.648923,134.49 C793.633642,144.268889 794.060031,152.357778 794.060031,168.535556 L793.207254,244.275 C793.207254,262.568889 794.912808,277.461111 810.241112,287.254444 L767.660081,328.529444 C757.014823,325.127778 743.811235,313.63 740.407354,306.826667" id="Fill-3" fill="#FFFFFF"></path>
                        <path d="M910.297862,100.011111 L950.754177,100.011111 L940.961696,148.53 L910.297862,148.53 L910.297862,237.045556 C910.297862,267.675 914.561746,274.485556 933.301158,274.485556 C940.108919,274.485556 947.350296,272.781111 952.033342,270.231667 L960.973046,312.785 C942.240862,321.718889 923.515904,325.553889 905.188427,325.553889 C863.893788,325.553889 836.207446,314.915556 836.207446,272.369444 L836.207446,148.53 L818.328038,148.53 L818.328038,100.011111 L836.207446,100.011111 C836.207446,78.3155556 836.633835,60.0144444 838.765777,45.5411111 L912.429804,34.4838889 C909.871473,57.8911111 910.297862,79.5866667 910.297862,100.011111" id="Fill-4" fill="#FFFFFF"></path>
                        <path d="M1061.91871,145.980556 C1046.16402,145.980556 1035.93792,155.759444 1035.93792,185.132222 L1085.33394,185.132222 C1086.18672,160.88 1079.80534,145.980556 1061.91871,145.980556 M1071.2848,273.214444 C1090.4506,273.214444 1110.03556,265.970556 1129.20859,251.078333 L1157.74048,293.631667 C1128.33413,316.193889 1101.10308,325.127778 1068.30731,325.127778 C998.047162,325.127778 959.2964,282.148333 959.2964,211.081667 C959.2964,138.751111 997.201612,94.4788889 1059.35315,94.4788889 C1130.06137,94.4788889 1159.00519,139.596111 1158.5788,214.909444 L1158.5788,233.210556 L1035.93792,233.210556 C1035.93792,246.824444 1040.62819,273.214444 1071.2848,273.214444" id="Fill-5" fill="#FFFFFF"></path>
                        <path d="M1302.5102,159.587222 C1294.83521,155.340556 1289.30662,153.636111 1280.7933,153.636111 C1268.00165,153.636111 1259.92917,160.446667 1254.80528,169.387778 L1254.80528,319.595556 L1180.71487,319.595556 L1180.71487,185.977222 C1180.71487,157.897222 1179.86932,130.228889 1173.90711,106.395556 L1242.03531,94.905 C1244.18171,102.567778 1246.72558,111.927778 1246.72558,120.868889 C1255.66529,108.959444 1268.44249,93.6338889 1291.85772,93.6338889 C1302.5102,93.6338889 1309.30351,95.7572222 1319.52238,100.011111 L1302.5102,159.587222" id="Fill-6" fill="#FFFFFF"></path>
                        <path d="M1435.36273,149.808333 C1432.37801,136.613333 1430.26052,119.157222 1429.81968,108.1 C1428.97413,119.157222 1426.84219,135.335 1421.72553,155.340556 L1409.81556,203.845 L1448.12548,203.845 L1435.36273,149.808333 L1435.36273,149.808333 Z M1478.78208,319.595556 L1463.45378,262.568889 L1393.20086,262.568889 L1377.02701,319.595556 L1296.96715,319.595556 L1392.34808,22.9933333 L1471.55516,22.9933333 L1561.4075,319.595556 L1478.78208,319.595556 L1478.78208,319.595556 Z" id="Fill-7" fill="#FFFFFF"></path>
                        <path d="M1577.15496,319.595556 L1577.15496,103.427222 L1651.24538,96.6166667 L1651.24538,319.595556 L1577.15496,319.595556 L1577.15496,319.595556 Z M1613.78101,83.8477778 C1590.79217,83.8477778 1571.60468,65.1205556 1571.60468,42.1394444 C1571.60468,19.1655556 1591.2041,0.431111111 1615.05295,0.431111111 C1638.4754,0.431111111 1656.78843,19.1655556 1656.78843,42.1394444 C1656.78843,65.1205556 1637.62985,83.8477778 1613.78101,83.8477778 L1613.78101,83.8477778 L1613.78101,83.8477778 Z" id="Fill-8" fill="#FFFFFF"></path>
                        <path d="M1788.35456,160.013333 C1786.23707,155.340556 1779.41486,151.512778 1772.59987,151.512778 C1753.43407,151.512778 1747.48631,165.552778 1747.48631,215.328333 C1747.48631,246.824444 1750.89019,269.386667 1772.17348,269.386667 C1779.84847,269.386667 1785.80346,265.970556 1788.35456,262.142778 L1788.35456,160.013333 L1788.35456,160.013333 Z M1806.2412,319.595556 C1804.11648,314.489444 1803.2637,310.228333 1802.83732,306.400556 C1792.61845,318.317222 1777.29014,325.127778 1755.13962,325.127778 C1698.93584,325.127778 1666.99284,283.845556 1666.99284,214.064444 C1666.99284,149.808333 1696.37751,94.4788889 1761.52822,94.4788889 C1772.17348,94.4788889 1784.94345,98.3211111 1790.91289,102.148889 C1789.63373,95.7572222 1788.35456,78.3155556 1788.35456,67.2583333 L1788.35456,8.09388889 L1862.44498,17.8872222 L1862.44498,232.351111 C1862.44498,288.099444 1864.15776,302.572778 1870.54636,319.595556 L1806.2412,319.595556 L1806.2412,319.595556 Z" id="Fill-9" fill="#FFFFFF"></path>
                        <path d="M157.715,174.046111 C149.389585,205.072778 142.292746,245.575 112.488915,263.724444 C68.6865346,290.403333 21.1622885,250.984444 36.4978192,202.429444 C42.4744846,183.507222 54.9987423,151.556111 98.8011231,119.41 C140.037946,89.1488889 202.825454,85.8988889 202.825454,85.8988889 C182.055277,109.602222 164.096373,150.299444 157.715,174.046111 M218.811408,68.0455556 C84.6797154,71.4038889 14.9832692,147.865556 1.77968077,247.965556 C-11.4239077,348.08 59.9636385,380.616111 102.111054,380.616111 C144.258469,380.616111 219.100485,353.605 207.472365,244.065556 C195.981558,135.833333 222.468231,91.5611111 226.515308,81.06 C230.569612,70.5588889 218.811408,68.0455556 218.811408,68.0455556" id="Fill-10" fill="#FFFFFF"></path>
                    </g>
                </g>
            </g>
        </g>
    </g>
</svg>