<?xml version="1.0" encoding="UTF-8" standalone="no"?>
<svg width="20px" height="20px" viewBox="0 0 20 20" version="1.1" xmlns="http://www.w3.org/2000/svg" xmlns:xlink="http://www.w3.org/1999/xlink" xmlns:sketch="http://www.bohemiancoding.com/sketch/ns">
    <!-- Generator: Sketch 3.1 (8751) - http://www.bohemiancoding.com/sketch -->
    <title>icon_21729</title>
    <desc>Created with Sketch.</desc>
    <defs></defs>
    <g id="Page-1" stroke="none" stroke-width="1" fill="none" fill-rule="evenodd" sketch:type="MSPage">
        <g id="icon_21729" sketch:type="MSLayerGroup" fill="#2AB34B">
            <path d="M10,20 C4.486,20 0,15.514 0,9.9998 C0,4.486 4.486,0 10,0 C15.5138,0 20,4.486 20,9.9998 C20,15.514 15.514,20 10,20 L10,20 Z M10,1.847 C5.5044,1.847 1.8468,5.5044 1.8468,10 C1.8468,14.4956 5.5044,18.1532 10,18.1532 C14.4956,18.1532 18.153,14.4956 18.153,10 C18.153,5.5042 14.4958,1.847 10,1.847 L10,1.847 Z" id="Shape" sketch:type="MSShapeGroup"></path>
            <path d="M7.811,15.0954 C7.5276,15.0954 7.256,14.983 7.0556,14.7824 L4.3778,12.1046 C3.9606,11.6874 3.9606,11.0112 4.3778,10.5938 C4.795,10.1768 5.4714,10.1768 5.8886,10.594 L7.811,12.5164 L14.1116,6.2158 C14.5288,5.7986 15.205,5.7986 15.6224,6.2158 C16.0396,6.633 16.0396,7.3092 15.6224,7.7264 L8.5666,14.7824 C8.366,14.9828 8.0942,15.0954 7.811,15.0954 L7.811,15.0954 Z" id="Shape" sketch:type="MSShapeGroup"></path>
        </g>
    </g>
</svg>