<?xml version="1.0" encoding="utf-8"?>
<!-- Generator: Adobe Illustrator 19.2.0, SVG Export Plug-In . SVG Version: 6.00 Build 0)  -->
<svg version="1.1" id="Layer_1" xmlns:sketch="http://www.bohemiancoding.com/sketch/ns"
	 xmlns="http://www.w3.org/2000/svg" xmlns:xlink="http://www.w3.org/1999/xlink" x="0px" y="0px" width="260px" height="54px"
	 viewBox="0 0 260 54" style="enable-background:new 0 0 260 54;" xml:space="preserve">
<style type="text/css">
	.st0{fill:#FFFFFF;}
	.st1{fill:#1A1918;}
	.st2{fill:#00A3DB;}
</style>
<title>Imported Layers</title>
<desc>Created with Sketch.</desc>
<path id="Fill-1" sketch:type="MSShapeGroup" class="st0" d="M23.1,25c-1.3,4.9-2.4,11.3-7.1,14.1c-6.9,4.2-14.4-2-12-9.7
	c0.9-3,2.9-8,9.8-13.1c6.5-4.8,16.4-5.3,16.4-5.3C26.9,14.9,24.1,21.3,23.1,25"/>
<path id="Fill-2" sketch:type="MSShapeGroup" class="st1" d="M76,44.9H64.8L62.7,33c-0.9-4.9-1.8-10.3-2-12.9h-0.1
	c-0.1,2.1-1,7.5-2,12.9l-2.2,11.9H44.9L35,3.9h11.1L48.4,15c1.9,9.3,2.3,13.3,2.4,14.8h0.1c0.2-3.3,0.9-8.4,2.1-14.5L55,3.9h11.7
	l2.7,13.7c0.6,3.1,1.4,7.1,1.7,12.1h0.1c0.2-3.7,1.5-11.6,2.3-15.6l2.1-10.2h11.3L76,44.9"/>
<path id="Fill-3" sketch:type="MSShapeGroup" class="st1" d="M94.7,35.7c0,1.8,1.1,2.9,2.8,2.9c0.9,0,2.1-0.5,2.4-1v-5.3
	C95.6,32.2,94.7,33.9,94.7,35.7 M102.7,43.2c-1.5,1.2-4,2.5-7.6,2.5c-7.5,0-10.4-4.5-10.4-9.9c0-5.8,5-9.9,13.5-9.9
	c0.4,0,1.4,0,1.7,0.1v-1.9c0-1.8-0.2-2.8-2.5-2.8c-3.4,0-6.1,1.2-8.7,3.2l-3.7-6.4c3.8-2.3,8.7-4.3,13.7-4.3c5.8,0,9.8,1.9,11,5.5
	c0.4,1.4,0.5,2.5,0.5,4.7L110,34.5c0,2.5,0.2,4.6,2.4,6l-5.9,5.7C105,45.7,103.2,44.1,102.7,43.2"/>
<path id="Fill-4" sketch:type="MSShapeGroup" class="st1" d="M126.2,14.5h5.6l-1.4,6.7h-4.2v12.3c0,4.2,0.6,5.2,3.2,5.2
	c0.9,0,1.9-0.2,2.6-0.6l1.2,5.9c-2.6,1.2-5.2,1.8-7.7,1.8c-5.7,0-9.5-1.5-9.5-7.4V21.3h-2.5v-6.7h2.5c0-3,0.1-5.5,0.4-7.5l10.2-1.5
	C126.2,8.7,126.2,11.7,126.2,14.5"/>
<path id="Fill-5" sketch:type="MSShapeGroup" class="st1" d="M147.2,20.9c-2.2,0-3.6,1.4-3.6,5.4h6.8
	C150.6,23,149.7,20.9,147.2,20.9 M148.5,38.5c2.7,0,5.4-1,8-3.1l3.9,5.9c-4.1,3.1-7.8,4.4-12.4,4.4c-9.7,0-15.1-6-15.1-15.8
	c0-10,5.2-16.1,13.8-16.1c9.8,0,13.8,6.2,13.7,16.7V33h-17C143.6,34.9,144.3,38.5,148.5,38.5"/>
<path id="Fill-6" sketch:type="MSShapeGroup" class="st1" d="M180.5,22.8c-1.1-0.6-1.8-0.8-3-0.8c-1.8,0-2.9,0.9-3.6,2.2v20.8h-10.3
	V26.4c0-3.9-0.1-7.7-0.9-11l9.4-1.6c0.3,1.1,0.6,2.4,0.6,3.6c1.2-1.6,3-3.8,6.2-3.8c1.5,0,2.4,0.3,3.8,0.9L180.5,22.8"/>
<path id="Fill-7" sketch:type="MSShapeGroup" class="st0" d="M198.9,21.4c-0.4-1.8-0.7-4.2-0.8-5.8c-0.1,1.5-0.4,3.8-1.1,6.5
	l-1.6,6.7h5.3L198.9,21.4L198.9,21.4z M204.9,44.9l-2.1-7.9h-9.7l-2.2,7.9h-11.1l13.2-41.1h11l12.4,41.1H204.9L204.9,44.9z"/>
<path id="Fill-8" sketch:type="MSShapeGroup" class="st0" d="M218.5,44.9V15l10.3-0.9v30.9H218.5L218.5,44.9z M223.6,12.3
	c-3.2,0-5.8-2.6-5.8-5.8c0-3.2,2.7-5.8,6-5.8c3.2,0,5.8,2.6,5.8,5.8C229.5,9.7,226.9,12.3,223.6,12.3L223.6,12.3z"/>
<path id="Fill-9" sketch:type="MSShapeGroup" class="st0" d="M247.7,22.8c-0.3-0.6-1.2-1.2-2.2-1.2c-2.7,0-3.5,1.9-3.5,8.8
	c0,4.4,0.5,7.5,3.4,7.5c1.1,0,1.9-0.5,2.2-1V22.8L247.7,22.8z M250.2,44.9c-0.3-0.7-0.4-1.3-0.5-1.8c-1.4,1.6-3.5,2.6-6.6,2.6
	c-7.8,0-12.2-5.7-12.2-15.4c0-8.9,4.1-16.6,13.1-16.6c1.5,0,3.2,0.5,4.1,1.1c-0.2-0.9-0.4-3.3-0.4-4.8V1.8L258,3.2v29.7
	c0,7.7,0.2,9.7,1.1,12.1H250.2L250.2,44.9z"/>
<path id="Fill-10" sketch:type="MSShapeGroup" class="st2" d="M22.1,24.8c-1.2,4.3-2.1,9.9-6.3,12.4c-6.1,3.7-12.6-1.8-10.5-8.5
	c0.8-2.6,2.6-7,8.6-11.5c5.7-4.2,14.4-4.6,14.4-4.6C25.5,15.9,23,21.5,22.1,24.8 M30.6,10.1C12,10.6,2.3,21.2,0.5,35
	c-1.8,13.9,8.1,18.4,13.9,18.4S30.6,49.7,29,34.5c-1.6-15,2.1-21.1,2.6-22.6C32.2,10.5,30.6,10.1,30.6,10.1"/>
</svg>
