<?xml version="1.0" encoding="UTF-8" standalone="no"?>
<svg width="26px" height="22px" viewBox="0 0 26 22" version="1.1" xmlns="http://www.w3.org/2000/svg" xmlns:xlink="http://www.w3.org/1999/xlink" xmlns:sketch="http://www.bohemiancoding.com/sketch/ns">
    <!-- Generator: Sketch 3.0.4 (8053) - http://www.bohemiancoding.com/sketch -->
    <title>Fill 1254</title>
    <desc>Created with Sketch.</desc>
    <defs></defs>
    <g id="Page-1" stroke="none" stroke-width="1" fill="none" fill-rule="evenodd" sketch:type="MSPage">
        <g id="Fill-1253-+-Fill-1254" sketch:type="MSLayerGroup" transform="translate(1.000000, 0.000000)" fill="#FFFFFF">
            <path d="M23.0308,0.0071 L19.5308,0.0071 C19.2988,0.0071 19.0968,0.1671 19.0438,0.3921 L17.7228,6.0071 L0.0308,6.0071 C-0.1302,6.0071 -0.2812,6.0841 -0.3752,6.2151 C-0.4692,6.3451 -0.4942,6.5131 -0.4432,6.6651 L2.5568,15.6651 C2.6248,15.8691 2.8158,16.0071 3.0308,16.0071 L15.3698,16.0071 L15.1348,17.0071 L4.5308,17.0071 C3.4278,17.0071 2.5308,17.9041 2.5308,19.0071 C2.5308,20.1101 3.4278,21.0071 4.5308,21.0071 C5.6338,21.0071 6.5308,20.1101 6.5308,19.0071 C6.5308,18.6411 6.4248,18.3021 6.2528,18.0071 L13.8088,18.0071 C13.6368,18.3021 13.5308,18.6411 13.5308,19.0071 C13.5308,20.1101 14.4278,21.0071 15.5308,21.0071 C16.6338,21.0071 17.5308,20.1101 17.5308,19.0071 C17.5308,18.1171 16.9428,17.3701 16.1378,17.1111 L19.9268,1.0071 L23.0308,1.0071 C23.3068,1.0071 23.5308,0.7831 23.5308,0.5071 C23.5308,0.2311 23.3068,0.0071 23.0308,0.0071" id="Fill-1254" sketch:type="MSShapeGroup"></path>
        </g>
    </g>
</svg>