<?xml version="1.0" encoding="UTF-8" standalone="no"?>
<svg width="16px" height="16px" viewBox="0 0 16 16" version="1.1" xmlns="http://www.w3.org/2000/svg" xmlns:xlink="http://www.w3.org/1999/xlink">
    <defs></defs>
    <g id="Page-1" stroke="none" stroke-width="1" fill="none" fill-rule="evenodd">
        <g id="clock" fill="#00AEEF">
            <path d="M7.8993906,0.4 C3.75663762,0.4 0.399,3.75763762 0.399,7.8996094 C0.399,12.0423624 3.75663762,15.4 7.8993906,15.4 C12.0405812,15.4 15.399,12.0423624 15.399,7.8996094 C15.399,3.75763762 12.0405812,0.4 7.8993906,0.4 L7.8993906,0.4 Z M7.8986094,13.8368002 C4.61987391,13.8368002 1.96141862,11.1791261 1.96141862,7.8996094 C1.96141862,4.62087391 4.6190927,1.96241862 7.8986094,1.96241862 C11.1773449,1.96241862 13.8365814,4.6200927 13.8365814,7.8996094 C13.8365814,11.1783449 11.1773449,13.8368002 7.8986094,13.8368002 L7.8986094,13.8368002 Z M8.68059992,7.37619916 L8.68059992,3.21235352 L7.11818129,3.21235352 L7.11818129,8.09100568 L4.34801307,9.69092235 L5.12922238,11.0439769 L8.3438987,9.18704234 C8.52982652,9.08001667 8.68059992,8.81753034 8.68059992,8.60269778 L8.68059992,8.47145461 L11.9929274,5.21693662 C11.838248,5.00522889 11.6718504,4.80367689 11.487485,4.61853028 L8.68059992,7.37619916 L8.68059992,7.37619916 Z" id="Shape"></path>
        </g>
    </g>
</svg>