<?xml version="1.0" encoding="UTF-8" standalone="no"?>
<svg width="15px" height="16px" viewBox="0 0 15 16" version="1.1" xmlns="http://www.w3.org/2000/svg" xmlns:xlink="http://www.w3.org/1999/xlink">
    <defs></defs>
    <g id="Page-1" stroke="none" stroke-width="1" fill="none" fill-rule="evenodd">
        <g id="new" fill="#FDB924">
            <path d="M13.8195823,9.73058035 L12.4704364,8.52908273 C12.0798325,8.18144525 12.0798325,7.61194475 12.4704364,7.26430727 L13.8195823,6.06202843 C14.2101862,5.71439095 14.1062856,5.39097091 13.5883448,5.34019241 L11.7993789,5.17067031 C11.2822193,5.12223542 11.0025469,4.67616576 11.1814435,4.18166121 L12.130611,1.53883515 C12.3087264,1.04276819 12.0907694,0.86309039 11.6470434,1.13729433 L9.53700103,2.44191139 C9.09327499,2.71845896 8.51908724,2.56690465 8.26285108,2.10911686 L7.49882983,0.745128009 C7.24181246,0.285777811 6.81761661,0.284215395 6.55591199,0.738878347 L5.84579408,1.9731867 C5.58252705,2.43019328 4.98021582,2.62393282 4.50758509,2.40753825 L3.25765258,1.83413171 C2.78267822,1.61539352 2.41941658,1.86694244 2.44754007,2.39347651 L2.51472394,3.65512714 C2.54362863,4.18166121 2.15458713,4.72303823 1.65227051,4.85896839 L0.445304424,5.18238843 C-0.0562309965,5.31831859 -0.148413519,5.71360974 0.242190391,6.06124722 L1.5913363,7.26352606 C1.98194021,7.61116354 1.98194021,8.18066404 1.5913363,8.52830152 L0.242190391,9.73058035 C-0.148413519,10.0782178 -0.0452940871,10.4156996 0.471084282,10.4781962 L2.10771466,10.676623 C2.62409303,10.7391196 2.91157751,11.2000323 2.74674266,11.7007865 L1.90772546,14.2459616 C1.74289061,14.7467158 1.97803417,14.9404553 2.42957229,14.6795319 L4.35368715,13.5655295 C4.80522527,13.3046061 5.41300495,13.4483484 5.70439547,13.8842623 L6.50278986,15.0865412 C6.79339917,15.5232363 7.23009434,15.4998001 7.47148756,15.033419 L8.17379339,13.6795859 C8.41596781,13.2124236 8.99562401,13.0218089 9.46122387,13.25539 L10.8158382,13.9326972 C11.2830005,14.1647159 11.6415749,13.9248851 11.6134514,13.3999135 L11.5454863,12.1367004 C11.5181441,11.6101664 11.9056231,11.0703518 12.4095022,10.9344216 L13.6149059,10.6094392 C14.1180037,10.473509 14.2101862,10.0782178 13.8195823,9.73058035 L13.8195823,9.73058035 Z M7.81209417,11.0242605 L6.24967853,11.0242605 L6.24967853,9.46184486 L7.81209417,9.46184486 L7.81209417,11.0242605 L7.81209417,11.0242605 Z M7.81209417,8.68063704 L6.24967853,8.68063704 L6.24967853,4.77459794 L7.81209417,4.77459794 L7.81209417,8.68063704 L7.81209417,8.68063704 Z" id="Shape"></path>
        </g>
    </g>
</svg>